<?xml version="1.0" encoding="utf-8"?>
<!-- Generator: Adobe Illustrator 24.0.2, SVG Export Plug-In . SVG Version: 6.00 Build 0)  -->
<svg version="1.1" id="图层_1" xmlns="http://www.w3.org/2000/svg" xmlns:xlink="http://www.w3.org/1999/xlink" x="0px" y="0px"
	 viewBox="0 0 200 200" style="enable-background:new 0 0 200 200;" xml:space="preserve">
<style type="text/css">
	.st0{fill:#FFFFFF;}
</style>
<g>
	<path class="st0" d="M72.1,156.9c-0.6,0-1.9,0-2.5-0.6l-24.8-24.8c-1.2-1.2-1.2-3.1,0-4.3L156.3,15.8c5-5.6,9.9-7.4,14.9-7.4
		s9.3,2.5,14.2,7.4c5,4.3,7.4,9.3,7.4,13.6c0,5-1.9,9.9-6.8,14.9l-43.3,43.3C114.2,116,78.3,151.3,75.2,155l-0.6,0.6
		C74,156.9,72.7,156.9,72.1,156.9z M51.7,129l20.4,20.4c5.6-6.2,21-21.7,66.2-66.2c16.1-16.1,32.2-31.6,43.3-43.3
		c3.1-3.1,5-6.8,5-9.9s-1.9-6.2-5.6-9.9s-6.8-5.6-9.9-5.6c-3.1,0-6.8,1.9-10.5,5.6L51.7,129L51.7,129z"/>
	<path class="st0" d="M161.9,67.1c-0.6,0-1.9,0-2.5-0.6l-24.8-24.8c-1.2-1.2-1.2-3.1,0-4.3s3.1-1.2,4.3,0l24.8,24.8
		c1.2,1.2,1.2,3.1,0,4.3C163.7,67.1,162.5,67.1,161.9,67.1z M10.2,181.7c-1.2,0-2.5-0.6-2.5-1.9c-0.6-1.2-0.6-2.5,0-3.1L51,133.4
		c1.2-1.2,3.1-1.2,4.3,0l15.5,15.5c1.2,1.2,1.2,2.5,0.6,3.7L56,174.2c-0.6,0.6-1.2,1.2-1.9,1.2L10.2,181.7z M53.5,139.6l-34.7,34.7
		l32.8-5l13-18.6L53.5,139.6z"/>
	<path class="st0" d="M50.4,156.9c-0.6,0-1.9,0-2.5-0.6c-1.2-1.2-1.2-3.1,0-4.3l9.3-9.3c1.2-1.2,3.1-1.2,4.3,0s1.2,3.1,0,4.3
		l-9.3,9.3C52.3,156.9,51.1,156.9,50.4,156.9z"/>
</g>
<g>
	<path class="st0" d="M136.9,169.1l10.1-1c0.6,3.4,1.8,5.9,3.7,7.5s4.4,2.4,7.5,2.4c3.4,0,5.9-0.7,7.6-2.1s2.5-3.1,2.5-5
		c0-1.2-0.4-2.3-1.1-3.1s-2-1.6-3.7-2.2c-1.2-0.4-4-1.2-8.3-2.3c-5.6-1.4-9.5-3.1-11.7-5.1c-3.2-2.8-4.7-6.3-4.7-10.4
		c0-2.6,0.7-5.1,2.2-7.4s3.6-4,6.4-5.2s6.2-1.8,10.1-1.8c6.5,0,11.3,1.4,14.6,4.3s5,6.6,5.2,11.4l-10.4,0.5
		c-0.4-2.6-1.4-4.6-2.9-5.7s-3.7-1.7-6.6-1.7c-3,0-5.4,0.6-7.1,1.9c-1.1,0.8-1.7,1.9-1.7,3.2c0,1.2,0.5,2.3,1.5,3.1
		c1.3,1.1,4.5,2.3,9.6,3.4s8.8,2.4,11.2,3.7s4.3,3,5.7,5.2s2.1,5,2.1,8.2c0,3-0.8,5.7-2.5,8.3s-4,4.5-7,5.7s-6.7,1.9-11.2,1.9
		c-6.5,0-11.5-1.5-15-4.5S137.6,174.9,136.9,169.1z"/>
</g>
</svg>
