<?xml version="1.0" encoding="utf-8"?>
<!-- Generator: Adobe Illustrator 24.0.2, SVG Export Plug-In . SVG Version: 6.00 Build 0)  -->
<svg version="1.1" id="图层_1" xmlns="http://www.w3.org/2000/svg" xmlns:xlink="http://www.w3.org/1999/xlink" x="0px" y="0px"
	 viewBox="0 0 200 200" style="enable-background:new 0 0 200 200;" xml:space="preserve">
<style type="text/css">
	.st0{fill:#FFFFFF;}
</style>
<path class="st0" d="M33.3,186.7H16.7c-1.8,0-3.3-1.5-3.3-3.3v-16.7c0-1.8,1.5-3.3,3.3-3.3h4.9C21,114.6,32.8,78,56.8,54.4
	c23.6-23.2,59.4-34.3,106.5-32.8v-4.9c0-1.8,1.5-3.3,3.3-3.3h16.7c1.8,0,3.3,1.5,3.3,3.3v16.7c0,1.8-1.5,3.3-3.3,3.3h-16.7
	c-1.8,0-3.3-1.5-3.3-3.3v-5.1c-45.3-1.4-79.5,9-101.8,30.9c-22.7,22.3-33.9,57.3-33.2,104.2h5.1c1.8,0,3.3,1.5,3.3,3.3v16.7
	C36.7,185.2,35.2,186.7,33.3,186.7L33.3,186.7z M20,180h10v-10H20V180z M170,30h10V20h-10V30z"/>
<g>
	<path class="st0" d="M141.2,169.9l10.1-1c0.6,3.4,1.8,5.9,3.7,7.5s4.4,2.4,7.5,2.4c3.4,0,5.9-0.7,7.6-2.1s2.5-3.1,2.5-5
		c0-1.2-0.4-2.3-1.1-3.1s-2-1.6-3.7-2.2c-1.2-0.4-4-1.2-8.3-2.3c-5.6-1.4-9.5-3.1-11.7-5.1c-3.2-2.8-4.7-6.3-4.7-10.4
		c0-2.6,0.7-5.1,2.2-7.4s3.6-4,6.4-5.2s6.2-1.8,10.1-1.8c6.5,0,11.3,1.4,14.6,4.3s5,6.6,5.2,11.4l-10.4,0.5
		c-0.4-2.6-1.4-4.6-2.9-5.7s-3.7-1.7-6.6-1.7c-3,0-5.4,0.6-7.1,1.9c-1.1,0.8-1.7,1.9-1.7,3.2c0,1.2,0.5,2.3,1.5,3.1
		c1.3,1.1,4.5,2.3,9.6,3.4s8.8,2.4,11.2,3.7s4.3,3,5.7,5.2s2.1,5,2.1,8.2c0,3-0.8,5.7-2.5,8.3s-4,4.5-7,5.7s-6.7,1.9-11.2,1.9
		c-6.5,0-11.5-1.5-15-4.5S141.9,175.7,141.2,169.9z"/>
</g>
</svg>
