<?xml version="1.0" encoding="utf-8"?>
<!-- Generator: Adobe Illustrator 24.0.2, SVG Export Plug-In . SVG Version: 6.00 Build 0)  -->
<svg version="1.1" id="图层_1" xmlns="http://www.w3.org/2000/svg" xmlns:xlink="http://www.w3.org/1999/xlink" x="0px" y="0px"
	 viewBox="0 0 200 200" style="enable-background:new 0 0 200 200;" xml:space="preserve">
<style type="text/css">
	.st0{fill:#FFFFFF;}
</style>
<path class="st0" d="M145.1,179H54.9c-9.3,0-16.9-7.6-16.9-16.9V60.5c0-3.1,2.5-5.6,5.6-5.6c3.1,0,5.6,2.5,5.6,5.6v101.6
	c0,3.1,2.5,5.6,5.6,5.6h90.3c3.1,0,5.6-2.5,5.6-5.6V60.5c0-3.1,2.5-5.6,5.6-5.6c3.1,0,5.6,2.5,5.6,5.6v101.6
	C162.1,171.4,154.5,179,145.1,179z M167.7,43.6h-39.5c-1.4,0-2.8-0.6-3.9-1.7l-7.9-7.9c-1.1-1.1-2.5-1.7-4.2-1.7H87.6
	c-1.4,0-2.8,0.6-3.9,1.7l-7.9,7.9c-1.1,1.1-2.5,1.7-3.9,1.7H32.3c-3.1,0-5.6-2.5-5.6-5.6c0-3.1,2.5-5.6,5.6-5.6h37.2l6.2-6.2
	c3.1-3.4,7.6-5.1,12.1-5.1h24.5c4.5,0,8.7,1.7,11.8,5.1l6.2,6.2h37.2c3.1,0,5.6,2.5,5.6,5.6C173.4,41,170.8,43.6,167.7,43.6z"/>
<path class="st0" d="M80.3,156.4c-3.1,0-5.6-2.5-5.6-5.6V60.5c0-3.1,2.5-5.6,5.6-5.6s5.6,2.5,5.6,5.6v90.3
	C85.9,153.9,83.4,156.4,80.3,156.4z M119.8,156.4c-3.1,0-5.6-2.5-5.6-5.6V60.5c0-3.1,2.5-5.6,5.6-5.6s5.6,2.5,5.6,5.6v90.3
	C125.4,153.9,122.9,156.4,119.8,156.4z"/>
</svg>
