<?xml version="1.0" encoding="utf-8"?>
<!-- Generator: Adobe Illustrator 24.0.2, SVG Export Plug-In . SVG Version: 6.00 Build 0)  -->
<svg version="1.1" id="图层_1" xmlns="http://www.w3.org/2000/svg" xmlns:xlink="http://www.w3.org/1999/xlink" x="0px" y="0px"
	 viewBox="0 0 200 200" style="enable-background:new 0 0 200 200;" xml:space="preserve">
<style type="text/css">
	.st0{fill:#FFFFFF;}
</style>
<path class="st0" d="M100,179c-9.8,0-19.3-1.9-28.2-5.7c-8.6-3.7-16.4-8.9-23-15.6c-6.6-6.7-11.9-14.5-15.5-23.2
	c-3.8-9-5.7-18.5-5.7-28.4c0-11.8,2.9-23.5,8.3-33.8c5.2-10,12.9-18.8,22-25.4c2.5-1.8,6.1-1.2,7.9,1.3c1.8,2.6,1.2,6.1-1.3,7.9
	c-7.7,5.6-14.2,13-18.6,21.5c-4.6,8.9-7,18.4-7,28.5c0,16.4,6.4,31.9,17.9,43.5c11.5,11.6,26.9,18,43.2,18c16.3,0,31.7-6.4,43.2-18
	c11.5-11.6,17.9-27.1,17.9-43.5c0-10.1-2.3-19.7-7-28.5c-4.4-8.4-10.9-15.9-18.6-21.4c-2.5-1.8-3.1-5.4-1.3-7.9
	c1.8-2.6,5.4-3.2,7.9-1.3c9.2,6.6,16.8,15.4,22,25.4c5.4,10.4,8.3,22,8.3,33.8c0,9.8-1.9,19.4-5.7,28.4c-3.6,8.7-8.9,16.5-15.5,23.2
	c-6.6,6.7-14.4,11.9-23,15.6C119.3,177.1,109.8,179,100,179L100,179z M101.7,99.9c-3.1,0-5.7-2.5-5.7-5.7V26.7
	c0-3.1,2.5-5.7,5.7-5.7c3.1,0,5.7,2.6,5.7,5.7v67.5C107.4,97.4,104.8,99.9,101.7,99.9L101.7,99.9z"/>
</svg>
