<?xml version="1.0" encoding="utf-8"?>
<!-- Generator: Adobe Illustrator 24.0.2, SVG Export Plug-In . SVG Version: 6.00 Build 0)  -->
<svg version="1.1" id="图层_1" xmlns="http://www.w3.org/2000/svg" xmlns:xlink="http://www.w3.org/1999/xlink" x="0px" y="0px"
	 viewBox="0 0 200 200" style="enable-background:new 0 0 200 200;" xml:space="preserve">
<style type="text/css">
	.st0{fill:#FFFFFF;}
</style>
<g>
	<path class="st0" d="M140,186.7v-51.5h10.1l21.1,34.4v-34.4h9.7v51.5h-10.4l-20.8-33.6v33.6H140z"/>
</g>
<path class="st0" d="M33.3,186.1H16.7c-1.8,0-3.3-1.5-3.3-3.3v-16.7c0-1.8,1.5-3.3,3.3-3.3H32L163.3,31.4V16.1
	c0-1.8,1.5-3.3,3.3-3.3h16.7c1.8,0,3.3,1.5,3.3,3.3v16.7c0,1.8-1.5,3.3-3.3,3.3H168L36.7,167.5v15.3
	C36.7,184.6,35.2,186.1,33.3,186.1z M20,179.5h10v-10H20V179.5z M170,29.5h10v-10h-10V29.5z"/>
</svg>
