<?xml version="1.0" encoding="utf-8"?>
<!-- Generator: Adobe Illustrator 24.0.2, SVG Export Plug-In . SVG Version: 6.00 Build 0)  -->
<svg version="1.1" id="图层_1" xmlns="http://www.w3.org/2000/svg" xmlns:xlink="http://www.w3.org/1999/xlink" x="0px" y="0px"
	 viewBox="0 0 200 200" style="enable-background:new 0 0 200 200;" xml:space="preserve">
<style type="text/css">
	.st0{fill:#FFFFFF;}
</style>
<g>
	<path class="st0" d="M139.9,135.1h20.6c4.1,0,7.1,0.2,9.1,0.5s3.8,1,5.4,2.1s2.9,2.5,4,4.3s1.6,3.8,1.6,6c0,2.4-0.7,4.6-2,6.6
		s-3.1,3.5-5.3,4.5c3.1,0.9,5.6,2.5,7.2,4.7s2.5,4.8,2.5,7.8c0,2.3-0.5,4.6-1.6,6.8s-2.6,4-4.5,5.3s-4.2,2.1-7,2.4
		c-1.7,0.2-5.9,0.3-12.6,0.4h-17.5V135.1z M150.4,143.7v11.9h6.8c4.1,0,6.6-0.1,7.6-0.2c1.8-0.2,3.2-0.8,4.2-1.8s1.5-2.4,1.5-4
		c0-1.6-0.4-2.9-1.3-3.9s-2.2-1.6-3.9-1.8c-1-0.1-4-0.2-8.9-0.2H150.4z M150.4,164.2V178h9.6c3.8,0,6.1-0.1,7.1-0.3
		c1.5-0.3,2.8-1,3.8-2.1s1.5-2.5,1.5-4.4c0-1.5-0.4-2.9-1.1-3.9s-1.8-1.9-3.3-2.4s-4.5-0.7-9.2-0.7H150.4z"/>
</g>
<path class="st0" d="M33.3,186.1H16.7c-1.8,0-3.3-1.5-3.3-3.3v-16.7c0-1.8,1.5-3.3,3.3-3.3H32L163.3,31.4V16.1
	c0-1.8,1.5-3.3,3.3-3.3h16.7c1.8,0,3.3,1.5,3.3,3.3v16.7c0,1.8-1.5,3.3-3.3,3.3H168L36.7,167.5v15.3
	C36.7,184.6,35.2,186.1,33.3,186.1z M20,179.5h10v-10H20V179.5z M170,29.5h10v-10h-10V29.5z"/>
</svg>
