<?xml version="1.0" encoding="utf-8"?>
<!-- Generator: Adobe Illustrator 24.0.2, SVG Export Plug-In . SVG Version: 6.00 Build 0)  -->
<svg version="1.1" id="图层_1" xmlns="http://www.w3.org/2000/svg" xmlns:xlink="http://www.w3.org/1999/xlink" x="0px" y="0px"
	 viewBox="0 0 200 200" style="enable-background:new 0 0 200 200;" xml:space="preserve">
<style type="text/css">
	.st0{fill:#FFFFFF;}
</style>
<g>
	<path class="st0" d="M139.9,135.1h19c4.3,0,7.6,0.3,9.8,1c3,0.9,5.6,2.5,7.8,4.7s3.8,5.1,4.9,8.3s1.7,7.4,1.7,12.2
		c0,4.2-0.5,7.9-1.6,11c-1.3,3.8-3.1,6.8-5.5,9.1c-1.8,1.8-4.2,3.1-7.3,4.1c-2.3,0.7-5.4,1.1-9.2,1.1h-19.6V135.1z M150.3,143.8V178
		h7.8c2.9,0,5-0.2,6.3-0.5c1.7-0.4,3.1-1.1,4.2-2.1s2-2.7,2.7-5s1.1-5.5,1.1-9.4s-0.4-7-1.1-9.2s-1.7-3.8-3-5s-2.9-2-4.8-2.4
		c-1.5-0.3-4.3-0.5-8.5-0.5H150.3z"/>
</g>
<path class="st0" d="M33.3,186.1H16.7c-1.8,0-3.3-1.5-3.3-3.3v-16.7c0-1.8,1.5-3.3,3.3-3.3H32L163.3,31.4V16.1
	c0-1.8,1.5-3.3,3.3-3.3h16.7c1.8,0,3.3,1.5,3.3,3.3v16.7c0,1.8-1.5,3.3-3.3,3.3H168L36.7,167.5v15.3
	C36.7,184.6,35.2,186.1,33.3,186.1z M20,179.5h10v-10H20V179.5z M170,29.5h10v-10h-10V29.5z"/>
</svg>
