<?xml version="1.0" standalone="no"?><!DOCTYPE svg PUBLIC "-//W3C//DTD SVG 1.1//EN" "http://www.w3.org/Graphics/SVG/1.1/DTD/svg11.dtd"><svg t="1591872317669" class="icon" viewBox="0 0 1024 1024" version="1.1" xmlns="http://www.w3.org/2000/svg" p-id="17960" xmlns:xlink="http://www.w3.org/1999/xlink" width="200" height="200"><defs><style type="text/css"></style></defs><path d="M480 96c-40.256 0-68.864 28.48-83.008 64H160v736h256v64h448V448h-64V160h-236.992C548.864 124.48 520.256 96 480 96z m0 64c17.76 0 32 14.24 32 32v32h96v64h-256V224h96V192c0-17.76 14.24-32 32-32zM224 224h64v128h384V224h64v224H416v384H224z m256 288h320v384H480z" p-id="17961" fill="#ffffff"></path></svg>