<?xml version="1.0" encoding="utf-8"?>
<!-- Generator: Adobe Illustrator 24.0.2, SVG Export Plug-In . SVG Version: 6.00 Build 0)  -->
<svg version="1.1" id="图层_1" xmlns="http://www.w3.org/2000/svg" xmlns:xlink="http://www.w3.org/1999/xlink" x="0px" y="0px"
	 viewBox="0 0 200 200" style="enable-background:new 0 0 200 200;" xml:space="preserve">
<style type="text/css">
	.st0{fill:#FFFFFF;}
	.st1{fill:none;stroke:#FFFFFF;stroke-width:7;stroke-miterlimit:10;}
</style>
<path class="st0" d="M88.3,32V16.7c0-1.8,1.5-3.3,3.3-3.3h16.7c1.8,0,3.3,1.5,3.3,3.3v16.7c0,1.8-1.5,3.3-3.3,3.3c0,0-10.6,0-15.3,0
	S88.3,32,88.3,32z M105,20H95v10h10V20z"/>
<path class="st0" d="M13.3,107V91.7c0-1.8,1.5-3.3,3.3-3.3h16.7c1.8,0,3.3,1.5,3.3,3.3v16.7c0,1.8-1.5,3.3-3.3,3.3
	c0,0-10.6,0-15.3,0S13.3,107,13.3,107z M30,95H20v10h10V95z"/>
<path class="st0" d="M13.3,182v-15.3c0-1.8,1.5-3.3,3.3-3.3h16.7c1.8,0,3.3,1.5,3.3,3.3v16.7c0,1.8-1.5,3.3-3.3,3.3
	c0,0-10.6,0-15.3,0S13.3,182,13.3,182z M30,170H20v10h10V170z"/>
<path class="st0" d="M163.3,32V16.7c0-1.8,1.5-3.3,3.3-3.3h16.7c1.8,0,3.3,1.5,3.3,3.3v16.7c0,1.8-1.5,3.3-3.3,3.3
	c0,0-10.6,0-15.3,0S163.3,32,163.3,32z M180,20h-10v10h10V20z"/>
<path class="st0" d="M163.3,107V91.7c0-1.8,1.5-3.3,3.3-3.3h16.7c1.8,0,3.3,1.5,3.3,3.3v16.7c0,1.8-1.5,3.3-3.3,3.3
	c0,0-10.6,0-15.3,0S163.3,107,163.3,107z M180,95h-10v10h10V95z"/>
<g>
	<path class="st0" d="M139.9,135.1h20.6c4.1,0,7.1,0.2,9.1,0.5s3.8,1,5.4,2.1s2.9,2.5,4,4.3s1.6,3.8,1.6,6c0,2.4-0.7,4.6-2,6.6
		s-3.1,3.5-5.3,4.5c3.1,0.9,5.6,2.5,7.2,4.7s2.5,4.8,2.5,7.8c0,2.3-0.5,4.6-1.6,6.8s-2.6,4-4.5,5.3s-4.2,2.1-7,2.4
		c-1.7,0.2-5.9,0.3-12.6,0.4h-17.5V135.1z M150.4,143.7v11.9h6.8c4.1,0,6.6-0.1,7.6-0.2c1.8-0.2,3.2-0.8,4.2-1.8s1.5-2.4,1.5-4
		c0-1.6-0.4-2.9-1.3-3.9s-2.2-1.6-3.9-1.8c-1-0.1-4-0.2-8.9-0.2H150.4z M150.4,164.2V178h9.6c3.7,0,6.1-0.1,7.1-0.3
		c1.5-0.3,2.8-1,3.8-2.1c1-1.1,1.5-2.5,1.5-4.4c0-1.5-0.4-2.9-1.1-3.9c-0.8-1.1-1.8-1.9-3.3-2.4c-1.4-0.5-4.5-0.7-9.2-0.7H150.4z"/>
</g>
<line class="st1" x1="30" y1="95" x2="95" y2="30"/>
<line class="st1" x1="33.7" y1="171.1" x2="166.4" y2="103.9"/>
<line class="st1" x1="25" y1="170" x2="25" y2="105"/>
<line class="st1" x1="175" y1="95" x2="175" y2="30"/>
<line class="st1" x1="105" y1="25" x2="170" y2="25"/>
</svg>
