<?xml version="1.0" encoding="utf-8"?>
<!-- Generator: Adobe Illustrator 24.0.2, SVG Export Plug-In . SVG Version: 6.00 Build 0)  -->
<svg version="1.1" id="图层_1" xmlns="http://www.w3.org/2000/svg" xmlns:xlink="http://www.w3.org/1999/xlink" x="0px" y="0px"
	 viewBox="0 0 200 200" style="enable-background:new 0 0 200 200;" xml:space="preserve">
<style type="text/css">
	.st0{fill:#FFFFFF;}
</style>
<path class="st0" d="M2.5,118.7c-3.1,6.7,0.4,14.6,7.4,16.9c5.8,2,12-0.8,14.7-6.3c12.8-26.1,39.6-44.2,70.7-44.2
	c19.2,0,36.6,7.1,50.3,18.5l-18.8,18.8c-6.2,6.2-1.7,16.8,7,16.8h54.9c5.4,0,9.8-4.4,9.8-9.8V74.5c0-8.7-10.6-13-16.8-6.8
	l-18.6,18.5c-18.2-15.8-41.8-25.5-67.8-25.5C54.5,60.7,19.3,84.5,2.5,118.7z"/>
</svg>
