<?xml version="1.0" standalone="no"?><!DOCTYPE svg PUBLIC "-//W3C//DTD SVG 1.1//EN" "http://www.w3.org/Graphics/SVG/1.1/DTD/svg11.dtd"><svg t="1584681293223" class="icon" viewBox="0 0 1024 1024" version="1.1" xmlns="http://www.w3.org/2000/svg" p-id="2316" xmlns:xlink="http://www.w3.org/1999/xlink" width="200" height="200"><defs><style type="text/css"></style></defs><path d="M426.666667 426.666667h170.666666v170.666666H426.666667z" p-id="2317" fill="#ffffff"></path><path d="M512 870.4c-98.679467 0-183.995733-35.259733-253.559467-104.840533C189.474133 696.593067 154.197333 612.181333 153.6 514.6624v-46.7968l-56.200533 56.200533a17.0496 17.0496 0 1 1-24.132267-24.132266l85.333333-85.333334a17.066667 17.066667 0 0 1 10.922667-4.9664h0.017067a14.8992 14.8992 0 0 1 3.259733 0.1024h0.017067a16.9984 16.9984 0 0 1 9.984 4.949334l85.248 85.248a17.0496 17.0496 0 1 1-24.132267 24.132266L187.733333 467.8656v46.6944c0.529067 88.1152 32.443733 164.471467 94.839467 226.8672C345.514667 804.369067 422.7072 836.266667 512 836.266667s166.485333-31.8976 229.4272-94.839467a343.620267 343.620267 0 0 0 52.855467-67.447467 17.066667 17.066667 0 0 1 29.371733 17.3568 377.429333 377.429333 0 0 1-58.077867 74.222934C695.978667 835.140267 610.679467 870.4 512 870.4z m341.333333-256c-0.7168 0-1.4336-0.0512-2.1504-0.136533h-0.034133a16.9472 16.9472 0 0 1-9.966933-4.949334l-85.248-85.248a17.0496 17.0496 0 1 1 24.132266-24.132266L836.266667 556.1344V506.026667c-1.058133-86.3232-32.989867-161.570133-94.839467-223.453867C678.485333 219.648 601.2928 187.733333 512 187.733333s-166.485333 31.914667-229.4272 94.839467a336.776533 336.776533 0 0 0-51.985067 66.594133 17.066667 17.066667 0 1 1-29.3888-17.373866 370.9952 370.9952 0 0 1 57.2416-73.352534C328.004267 188.8768 413.320533 153.6 512 153.6s183.995733 35.2768 253.559467 104.840533C833.9456 326.826667 869.205333 410.0608 870.4 505.821867v50.312533l56.200533-56.200533a17.0496 17.0496 0 1 1 24.132267 24.132266l-85.333333 85.333334a16.964267 16.964267 0 0 1-10.922667 4.9664h-0.034133A24.064 24.064 0 0 1 853.333333 614.4z m-256 0H426.666667a17.066667 17.066667 0 0 1-17.066667-17.066667V426.666667a17.066667 17.066667 0 0 1 17.066667-17.066667h170.666666a17.066667 17.066667 0 0 1 17.066667 17.066667v170.666666a17.066667 17.066667 0 0 1-17.066667 17.066667z m-153.6-34.133333h136.533334v-136.533334h-136.533334v136.533334z" p-id="2318" fill="#ffffff"></path></svg>