<?xml version="1.0" encoding="utf-8"?>
<!-- Generator: Adobe Illustrator 24.0.2, SVG Export Plug-In . SVG Version: 6.00 Build 0)  -->
<svg version="1.1" id="图层_1" xmlns="http://www.w3.org/2000/svg" xmlns:xlink="http://www.w3.org/1999/xlink" x="0px" y="0px"
	 viewBox="0 0 200 200" style="enable-background:new 0 0 200 200;" xml:space="preserve">
<style type="text/css">
	.st0{fill:#FFFFFF;}
</style>
<path class="st0" d="M114.1,71.9c2.6,0,4.7-2.1,4.7-4.7V48.4c0-2.6-2.1-4.7-4.7-4.7s-4.7,2.1-4.7,4.7v18.8
	C109.4,69.8,111.5,71.9,114.1,71.9L114.1,71.9z M165.6,156.3c0,5.2-4.2,9.4-9.4,9.4H43.8c-5.2,0-9.4-4.2-9.4-9.4V43.8
	c0-5.2,4.2-9.4,9.4-9.4h9.4v46.9c0,5.2,4.2,9.4,9.4,9.4h75c5.2,0,9.4-4.2,9.4-9.4V34.4h9.4c5.2,0,9.4,4.2,9.4,9.4V156.3L165.6,156.3
	z M62.5,34.4h75v42.2c0,2.6-2.1,4.7-4.7,4.7H67.2c-2.6,0-4.7-2.1-4.7-4.7V34.4L62.5,34.4z M156.3,25H43.8C33.4,25,25,33.4,25,43.8
	v112.5c0,10.4,8.4,18.8,18.8,18.8h112.5c10.4,0,18.8-8.4,18.8-18.8V43.8C175,33.4,166.6,25,156.3,25L156.3,25z"/>
</svg>
