<?xml version="1.0" standalone="no"?><!DOCTYPE svg PUBLIC "-//W3C//DTD SVG 1.1//EN" "http://www.w3.org/Graphics/SVG/1.1/DTD/svg11.dtd"><svg t="1584698220034" class="icon" viewBox="0 0 1024 1024" version="1.1" xmlns="http://www.w3.org/2000/svg" p-id="2204" xmlns:xlink="http://www.w3.org/1999/xlink" width="200" height="200"><defs><style type="text/css"></style></defs><path d="M512 51.2C258.048 51.2 51.2 258.048 51.2 512v235.52c0 5.12 0 10.24 1.024 15.36 0 3.072-1.024 7.168-1.024 10.24C51.2 883.712 140.288 972.8 250.88 972.8c4.096 0 7.168 0 10.24-1.024 5.12 0 10.24 1.024 15.36 1.024h235.52c253.952 0 460.8-206.848 460.8-460.8S765.952 51.2 512 51.2zM264.192 930.816c-91.136-6.144-164.864-79.872-171.008-171.008 6.144-81.92 74.752-146.432 157.696-146.432C337.92 614.4 409.6 686.08 409.6 773.12c0 82.944-64.512 151.552-145.408 157.696z m107.52 1.024C419.84 894.976 450.56 837.632 450.56 773.12 450.56 662.528 361.472 573.44 250.88 573.44c-64.512 0-121.856 30.72-158.72 78.848V645.12c0-157.696 129.024-286.72 286.72-286.72s286.72 129.024 286.72 286.72-129.024 286.72-286.72 286.72h-7.168z m166.912-1.024C638.976 874.496 706.56 768 706.56 645.12c0-180.224-147.456-327.68-327.68-327.68-122.88 0-229.376 67.584-285.696 167.936C107.52 266.24 289.792 92.16 512 92.16c231.424 0 419.84 188.416 419.84 419.84 0 222.208-174.08 404.48-393.216 418.816z" p-id="2205" fill="#ffffff"></path></svg>