<?xml version="1.0" encoding="utf-8"?>
<!-- Generator: Adobe Illustrator 24.0.2, SVG Export Plug-In . SVG Version: 6.00 Build 0)  -->
<svg version="1.1" id="图层_1" xmlns="http://www.w3.org/2000/svg" xmlns:xlink="http://www.w3.org/1999/xlink" x="0px" y="0px"
	 viewBox="0 0 200 200" style="enable-background:new 0 0 200 200;" xml:space="preserve">
<style type="text/css">
	.st0{fill:#FFFFFF;}
</style>
<g>
	<g>
		<g>
			<path class="st0" d="M162.5,34.2h-16.7c-0.9,0-1.7,0.4-2.4,1l-36.8,36.9l-6-6c-2.6-2.6-6.8-2.6-9.4,0c-2.6,2.6-2.6,6.8,0,9.4
				l5.9,5.9l-53.7,53.7c-0.6,0.6-1,1.5-1,2.4v10.9c-0.5,0.3-1,0.7-1.4,1.1l-8.3,8.3c-1.2,1.2-2,2.9-2,4.7c0,3.7,3,6.7,6.7,6.7
				c1.8,0,3.5-0.7,4.7-2l8.3-8.3c0.1-0.1,0.1-0.1,0.2-0.2c0.4-0.4,0.7-0.8,0.9-1.2h10.9c0.9,0,1.7-0.3,2.4-1l53.7-53.7l6.1,6.1
				c1.2,1.3,2.9,2,4.7,2c1.8,0,3.5-0.7,4.7-2c2.6-2.6,2.6-6.8,0-9.4l-6-6l36.8-36.9c0.6-0.6,1-1.5,1-2.4V37.5
				C165.8,35.7,164.3,34.2,162.5,34.2z M61.1,150.8h-9.4c-0.3-0.6-0.7-1.1-1.2-1.5c-0.4-0.4-0.9-0.7-1.4-1v-9.4l52.7-52.7l12,12
				L61.1,150.8z"/>
		</g>
	</g>
</g>
</svg>
