<?xml version="1.0" encoding="utf-8"?>
<!-- Generator: Adobe Illustrator 24.0.2, SVG Export Plug-In . SVG Version: 6.00 Build 0)  -->
<svg version="1.1" id="图层_1" xmlns="http://www.w3.org/2000/svg" xmlns:xlink="http://www.w3.org/1999/xlink" x="0px" y="0px"
	 viewBox="0 0 200 200" style="enable-background:new 0 0 200 200;" xml:space="preserve">
<style type="text/css">
	.st0{fill:#FFFFFF;}
</style>
<path class="st0" d="M172.8,97.1l-24.7-24.7c-1.6-1.6-4.2-1.5-5.8,0.1c-1.5,1.6-1.5,4.1,0,5.7l17.6,17.6h-55.8V40l17.6,17.6
	c1.6,1.6,4.2,1.6,5.8,0c0,0,0,0,0,0c1.6-1.6,1.6-4.2,0-5.8l-24.7-24.7c-1.6-1.6-4.2-1.6-5.8,0L72.4,51.9c-1.6,1.6-1.5,4.2,0.1,5.8
	c1.6,1.5,4.1,1.5,5.7,0L95.9,40v55.8H40l17.6-17.6c1.6-1.6,1.5-4.2-0.1-5.8c-1.6-1.5-4.1-1.5-5.7,0L27.2,97.1
	c-1.6,1.6-1.6,4.2,0,5.8l24.7,24.7c1.6,1.6,4.2,1.6,5.8,0c0,0,0,0,0,0c1.6-1.6,1.6-4.2,0-5.8L40,104.1h55.8V160l-17.6-17.6
	c-1.6-1.6-4.2-1.5-5.8,0.1c-1.5,1.6-1.5,4.1,0,5.7l24.7,24.7c1.6,1.6,4.2,1.6,5.8,0c0,0,0,0,0,0l24.7-24.7c1.6-1.6,1.5-4.2-0.1-5.8
	c-1.6-1.5-4.1-1.5-5.7,0L104.1,160v-55.8H160l-17.6,17.6c-1.6,1.6-1.6,4.2,0,5.8c1.6,1.6,4.2,1.6,5.8,0l24.7-24.7
	C174.4,101.3,174.4,98.7,172.8,97.1L172.8,97.1z"/>
</svg>
