<?xml version="1.0" encoding="utf-8"?>
<!-- Generator: Adobe Illustrator 24.0.2, SVG Export Plug-In . SVG Version: 6.00 Build 0)  -->
<svg version="1.1" id="图层_1" xmlns="http://www.w3.org/2000/svg" xmlns:xlink="http://www.w3.org/1999/xlink" x="0px" y="0px"
	 viewBox="0 0 200 200" style="enable-background:new 0 0 200 200;" xml:space="preserve">
<style type="text/css">
	.st0{fill:#FFFFFF;}
</style>
<path class="st0" d="M104.6,60.7c-26,0-49.6,9.7-67.8,25.5L18.2,67.7C12,61.5,1.4,65.8,1.4,74.5v54.9c0,5.4,4.4,9.8,9.8,9.8h54.9
	c8.7,0,13.2-10.6,7-16.8l-18.8-18.8c13.7-11.4,31.1-18.5,50.3-18.5c31.1,0,57.9,18.1,70.7,44.2c2.7,5.5,8.9,8.3,14.7,6.3
	c7-2.3,10.5-10.2,7.4-16.9C180.6,84.5,145.4,60.7,104.6,60.7z"/>
</svg>
